<svg width="1594" height="1000" viewBox="0 0 1594 1000" fill="none" xmlns="http://www.w3.org/2000/svg">
<g clip-path="url(#clip0)">
<rect width="1594" height="1000" fill="#72ABBD"/>
<path d="M352 878.861C352 937.956 278.575 985.861 188 985.861C97.4253 985.861 50 867.956 50 808.861C50 749.767 123.425 773.861 214 773.861C230 878.861 352 819.767 352 878.861Z" fill="#85B6C6"/>
<path d="M948 894.861C948 953.956 874.575 1001.86 784 1001.86C693.425 1001.86 646 883.956 646 824.861C646 765.767 719.425 789.861 810 789.861C826 894.861 948 835.767 948 894.861Z" fill="#85B6C6"/>
<path d="M659 580.861C659 639.956 585.575 687.861 495 687.861C404.425 687.861 357 569.956 357 510.861C357 451.767 430.425 475.861 521 475.861C537 580.861 659 521.767 659 580.861Z" fill="#85B6C6"/>
<path d="M1671 42.8614C1671 101.956 1597.57 149.861 1507 149.861C1416.43 149.861 1369 31.9557 1369 -27.1387C1369 -86.2332 1442.43 -62.1388 1533 -62.1388C1549 42.8614 1671 -16.233 1671 42.8614Z" fill="#85B6C6"/>
<path d="M1393 259.861C1393 318.956 1319.57 366.861 1229 366.861C1138.43 366.861 1091 248.956 1091 189.861C1091 130.767 1164.43 154.861 1255 154.861C1271 259.861 1393 200.767 1393 259.861Z" fill="#85B6C6"/>
<path d="M466 16.8614C466 75.9559 392.575 123.861 302 123.861C211.425 123.861 164 5.95573 164 -53.1387C164 -112.233 237.425 -88.1388 328 -88.1388C344 16.8614 466 -42.233 466 16.8614Z" fill="#85B6C6"/>
<path d="M1026 406.861C1026 465.956 952.575 513.861 862 513.861C771.425 513.861 724 395.956 724 336.861C724 277.767 797.425 301.861 888 301.861C904 406.861 1026 347.767 1026 406.861Z" fill="#85B6C6"/>
<path d="M1762 890.861C1762 949.956 1688.57 997.861 1598 997.861C1507.43 997.861 1460 879.956 1460 820.861C1460 761.767 1533.43 785.861 1624 785.861C1640 890.861 1762 831.767 1762 890.861Z" fill="#85B6C6"/>
<path d="M293 386.861C293 445.956 219.575 493.861 129 493.861C38.4253 493.861 -9 375.956 -9 316.861C-9 257.767 64.4253 281.861 155 281.861C171 386.861 293 327.767 293 386.861Z" fill="#85B6C6"/>
<path d="M1594 564.861C1594 623.956 1520.57 671.861 1430 671.861C1339.43 671.861 1292 553.956 1292 494.861C1292 435.767 1365.43 459.861 1456 459.861C1472 564.861 1594 505.767 1594 564.861Z" fill="#85B6C6"/>
<path d="M1124 42.8614C1124 101.956 1050.57 149.861 960 149.861C869.425 149.861 822 31.9557 822 -27.1387C822 -86.2332 895.425 -62.1388 986 -62.1388C1002 42.8614 1124 -16.233 1124 42.8614Z" fill="#85B6C6"/>
</g>
<defs>
<clipPath id="clip0">
<rect width="1594" height="1000" fill="white"/>
</clipPath>
</defs>
</svg>
