<svg width="1298" height="917" viewBox="0 0 1298 917" fill="none" xmlns="http://www.w3.org/2000/svg">
<g clip-path="url(#clip0)">
<rect width="1298" height="917" fill="#72ABBD"/>
<path d="M352 878.861C352 937.956 278.575 985.861 188 985.861C97.4253 985.861 50 867.956 50 808.861C50 749.767 123.425 773.861 214 773.861C230 878.861 352 819.767 352 878.861Z" fill="#85B6C6"/>
<path d="M948 894.861C948 953.956 874.575 1001.86 784 1001.86C693.425 1001.86 646 883.956 646 824.861C646 765.767 719.425 789.861 810 789.861C826 894.861 948 835.767 948 894.861Z" fill="#85B6C6"/>
<path d="M1426 544.861C1426 603.956 1352.57 651.861 1262 651.861C1171.43 651.861 1124 533.956 1124 474.861C1124 415.767 1197.43 439.861 1288 439.861C1304 544.861 1426 485.767 1426 544.861Z" fill="#85B6C6"/>
<path d="M256 42.8614C256 101.956 182.575 149.861 92 149.861C1.4253 149.861 -46 31.9557 -46 -27.1387C-46 -86.2332 27.4253 -62.1388 118 -62.1388C134 42.8614 256 -16.233 256 42.8614Z" fill="#85B6C6"/>
<path d="M1026 406.861C1026 465.956 952.575 513.861 862 513.861C771.425 513.861 724 395.956 724 336.861C724 277.767 797.425 301.861 888 301.861C904 406.861 1026 347.767 1026 406.861Z" fill="#85B6C6"/>
<path d="M1124 42.8614C1124 101.956 1050.57 149.861 960 149.861C869.425 149.861 822 31.9557 822 -27.1387C822 -86.2332 895.425 -62.1388 986 -62.1388C1002 42.8614 1124 -16.233 1124 42.8614Z" fill="#85B6C6"/>
</g>
<defs>
<clipPath id="clip0">
<rect width="1298" height="917" fill="white"/>
</clipPath>
</defs>
</svg>
