<svg width="992" height="1140" viewBox="0 0 992 1140" fill="none" xmlns="http://www.w3.org/2000/svg">
<g clip-path="url(#clip0)">
<rect width="992" height="1140" fill="#72ABBD"/>
<path d="M256 1081.86C256 1140.96 182.575 1188.86 92 1188.86C1.4253 1188.86 -46 1070.96 -46 1011.86C-46 952.767 27.4253 976.861 118 976.861C134 1081.86 256 1022.77 256 1081.86Z" fill="#85B6C6"/>
<path d="M1156 553.861C1156 612.956 1082.57 660.861 992 660.861C901.425 660.861 854 542.956 854 483.861C854 424.767 927.425 448.861 1018 448.861C1034 553.861 1156 494.767 1156 553.861Z" fill="#85B6C6"/>
<path d="M466 16.8614C466 75.9559 392.575 123.861 302 123.861C211.425 123.861 164 5.95573 164 -53.1387C164 -112.233 237.425 -88.1388 328 -88.1388C344 16.8614 466 -42.233 466 16.8614Z" fill="#85B6C6"/>
<path d="M1128 1081.86C1128 1140.96 1054.57 1188.86 964 1188.86C873.425 1188.86 826 1070.96 826 1011.86C826 952.767 899.425 976.861 990 976.861C1006 1081.86 1128 1022.77 1128 1081.86Z" fill="#85B6C6"/>
<path d="M256 1260.86C256 1319.96 182.575 1367.86 92 1367.86C1.4253 1367.86 -46 1249.96 -46 1190.86C-46 1131.77 27.4253 1155.86 118 1155.86C134 1260.86 256 1201.77 256 1260.86Z" fill="#85B6C6"/>
<path d="M393.632 771.444C349.811 731.797 363.549 645.209 424.316 578.044C485.083 510.879 604.333 554.815 648.154 594.462C691.975 634.108 624.847 672.391 564.079 739.556C475.483 680.976 437.453 811.091 393.632 771.444Z" fill="#85B6C6"/>
<path d="M-145.655 865.733C-189.476 826.086 -175.739 739.498 -114.971 672.333C-54.2042 605.168 65.0458 649.104 108.867 688.751C152.688 728.397 85.5593 766.68 24.7922 833.845C-63.8044 775.265 -101.834 905.38 -145.655 865.733Z" fill="#85B6C6"/>
<path d="M1124 42.8614C1124 101.956 1050.57 149.861 960 149.861C869.425 149.861 822 31.9557 822 -27.1387C822 -86.2332 895.425 -62.1388 986 -62.1388C1002 42.8614 1124 -16.233 1124 42.8614Z" fill="#85B6C6"/>
</g>
<defs>
<clipPath id="clip0">
<rect width="992" height="1140" fill="white"/>
</clipPath>
</defs>
</svg>
