<svg width="768" height="1140" viewBox="0 0 768 1140" fill="none" xmlns="http://www.w3.org/2000/svg">
<g clip-path="url(#clip0)">
<rect width="768" height="1140" fill="#72ABBD"/>
<path d="M256 1081.86C256 1140.96 182.575 1188.86 92 1188.86C1.4253 1188.86 -46 1070.96 -46 1011.86C-46 952.767 27.4253 976.861 118 976.861C134 1081.86 256 1022.77 256 1081.86Z" fill="#85B6C6"/>
<path d="M466 16.8614C466 75.9559 392.575 123.861 302 123.861C211.425 123.861 164 5.95573 164 -53.1387C164 -112.233 237.425 -88.1388 328 -88.1388C344 16.8614 466 -42.233 466 16.8614Z" fill="#85B6C6"/>
<path d="M256 1260.86C256 1319.96 182.575 1367.86 92 1367.86C1.4253 1367.86 -46 1249.96 -46 1190.86C-46 1131.77 27.4253 1155.86 118 1155.86C134 1260.86 256 1201.77 256 1260.86Z" fill="#85B6C6"/>
<path d="M-145.655 865.733C-189.476 826.086 -175.739 739.498 -114.971 672.333C-54.2042 605.168 65.0458 649.104 108.867 688.751C152.688 728.397 85.5593 766.68 24.7922 833.845C-63.8044 775.265 -101.834 905.38 -145.655 865.733Z" fill="#85B6C6"/>
<path d="M586.345 1247.73C542.524 1208.09 556.261 1121.5 617.029 1054.33C677.796 987.168 797.046 1031.1 840.867 1070.75C884.688 1110.4 817.559 1148.68 756.792 1215.85C668.196 1157.26 630.166 1287.38 586.345 1247.73Z" fill="#85B6C6"/>
<path d="M586.345 641.733C542.524 602.086 556.261 515.498 617.029 448.333C677.796 381.168 797.046 425.104 840.867 464.751C884.688 504.397 817.559 542.68 756.792 609.845C668.196 551.265 630.166 681.38 586.345 641.733Z" fill="#85B6C6"/>
<path d="M45.6809 135C45.6809 112.909 63.5895 95 85.6809 95H677.806C699.898 95 717.806 112.909 717.806 135C717.806 141.709 717.806 148.381 717.806 154.225C717.806 169.644 717.806 193.708 717.806 193.708C717.806 193.708 717.806 193.708 717.806 193.708V346V557C717.806 579.091 699.898 597 677.806 597H85.6809C63.5895 597 45.6809 579.091 45.6809 557V135Z" fill="white"/>
<rect x="619.785" y="129.582" width="139.06" height="39.7511" rx="19.8756" fill="white"/>
<rect x="22.2552" y="279.503" width="139.06" height="39.7511" rx="19.8756" fill="white"/>
<rect x="3.9389" y="361.618" width="138.535" height="39.0444" rx="19.5222" fill="white"/>
<rect x="611.316" y="209.902" width="124.621" height="42.3911" rx="21.1956" fill="white"/>
<rect x="651.243" y="508.871" width="116.757" height="53.5467" rx="26.7733" fill="white"/>
<rect x="689.356" y="169" width="49.6065" height="43" rx="21.5" fill="#72ABBD"/>
<rect x="-5.1355" y="137.391" width="76.8296" height="42.3911" rx="21.1956" fill="#72ABBD"/>
<rect x="34.7916" y="95" width="113.777" height="42.0226" rx="21.0113" fill="white"/>
<rect x="34.7916" y="179.384" width="113.777" height="42.0226" rx="21.0113" fill="white"/>
<rect x="-5.1355" y="319.227" width="96.1882" height="42.3911" rx="21.1956" fill="#72ABBD"/>
<rect x="686.331" y="469" width="39.9272" height="40" rx="19.9636" fill="#72ABBD"/>
<rect x="-13" y="221.52" width="67.1503" height="58.1585" rx="15" fill="#72ABBD"/>
<path d="M702.665 267.636C702.665 258.448 710.113 251 719.301 251V251C728.489 251 735.937 258.448 735.937 267.636V472.364C735.937 481.552 728.489 489 719.301 489V489C710.113 489 702.665 481.552 702.665 472.364V267.636Z" fill="#72ABBD"/>
</g>
<defs>
<clipPath id="clip0">
<rect width="768" height="1140" fill="white"/>
</clipPath>
</defs>
</svg>
