<svg width="768" height="1585" viewBox="0 0 768 1585" fill="none" xmlns="http://www.w3.org/2000/svg">
<g clip-path="url(#clip0)">
<rect width="768" height="1585" fill="#72ABBD"/>
<path d="M245 792.861C245 851.956 171.575 899.861 81 899.861C-9.5747 899.861 -57 781.956 -57 722.861C-57 663.767 16.4253 687.861 107 687.861C123 792.861 245 733.767 245 792.861Z" fill="#85B6C6"/>
<path d="M302 1095.86C302 1154.96 228.575 1202.86 138 1202.86C47.4253 1202.86 0 1084.96 0 1025.86C0 966.767 73.4253 990.861 164 990.861C180 1095.86 302 1036.77 302 1095.86Z" fill="#85B6C6"/>
<path d="M-145.655 865.733C-189.476 826.086 -175.739 739.498 -114.971 672.333C-54.2042 605.168 65.0458 649.104 108.867 688.751C152.688 728.397 85.5593 766.68 24.7922 833.845C-63.8044 775.265 -101.834 905.38 -145.655 865.733Z" fill="#85B6C6"/>
<path d="M-54.655 336.733C-98.476 297.086 -84.7385 210.498 -23.9714 143.333C36.7958 76.1679 156.046 120.104 199.867 159.751C243.688 199.397 176.559 237.68 115.792 304.845C27.1956 246.265 -10.834 376.38 -54.655 336.733Z" fill="#85B6C6"/>
<path d="M663.345 1521.73C619.524 1482.09 633.261 1395.5 694.029 1328.33C754.796 1261.17 874.046 1305.1 917.867 1344.75C961.688 1384.4 894.559 1422.68 833.792 1489.85C745.196 1431.26 707.166 1561.38 663.345 1521.73Z" fill="#85B6C6"/>
<path d="M586.345 641.733C542.524 602.086 556.261 515.498 617.029 448.333C677.796 381.168 797.046 425.104 840.867 464.751C884.688 504.397 817.559 542.68 756.792 609.845C668.196 551.265 630.166 681.38 586.345 641.733Z" fill="#85B6C6"/>
<path d="M586.345 227.733C542.524 188.086 556.261 101.498 617.029 34.3328C677.796 -32.8321 797.046 11.1037 840.867 50.7505C884.688 90.3974 817.559 128.68 756.792 195.845C668.196 137.265 630.166 267.38 586.345 227.733Z" fill="#85B6C6"/>
<path d="M589.896 124.252C611.987 124.072 630.041 141.834 630.221 163.925L640.011 1365.92C640.19 1388.01 622.428 1406.07 600.338 1406.25C593.629 1406.3 586.957 1406.35 581.114 1406.4C565.695 1406.53 541.632 1406.72 541.632 1406.72C541.632 1406.72 541.632 1406.72 541.632 1406.72L389.345 1407.96L178.352 1409.68C156.261 1409.86 138.207 1392.1 138.027 1370.01L128.237 168.013C128.057 145.923 145.82 127.869 167.91 127.689L589.896 124.252Z" fill="white"/>
<rect x="604.232" y="1219.24" width="265.249" height="39.7511" rx="19.8756" transform="rotate(89.5334 604.232 1219.24)" fill="white"/>
<rect x="445.034" y="80.7482" width="265.249" height="39.7511" rx="19.8756" transform="rotate(89.5334 445.034 80.7482)" fill="white"/>
<rect x="362.638" y="46.4807" width="264.247" height="39.0444" rx="19.5222" transform="rotate(89.5334 362.638 46.4807)" fill="white"/>
<rect x="523.784" y="1203.74" width="237.707" height="42.3911" rx="21.1956" transform="rotate(89.5334 523.784 1203.74)" fill="white"/>
<rect x="225.445" y="1282.33" width="222.706" height="53.5467" rx="26.7733" transform="rotate(89.5334 225.445 1282.33)" fill="white"/>
<rect x="565.897" y="1352.26" width="94.6222" height="43" rx="21.5" transform="rotate(89.5334 565.897 1352.26)" fill="#72ABBD"/>
<rect x="586.716" y="27.3469" width="146.547" height="42.3911" rx="21.1956" transform="rotate(89.5334 586.716 27.3469)" fill="#72ABBD"/>
<rect x="629.726" y="103.157" width="217.022" height="42.0226" rx="21.0113" transform="rotate(89.5334 629.726 103.157)" fill="white"/>
<rect x="545.344" y="103.845" width="217.022" height="42.0226" rx="21.0113" transform="rotate(89.5334 545.344 103.845)" fill="white"/>
<rect x="404.886" y="28.8278" width="183.473" height="42.3911" rx="21.1956" transform="rotate(89.5334 404.886 28.8278)" fill="#72ABBD"/>
<rect x="265.86" y="1348.93" width="76.1593" height="40" rx="20" transform="rotate(89.5334 265.86 1348.93)" fill="#72ABBD"/>
<rect x="502.467" y="13.0304" width="128.085" height="58.1585" rx="15" transform="rotate(89.5334 502.467 13.0304)" fill="#72ABBD"/>
<path d="M454.107 1378.55C470.675 1378.42 484.216 1391.74 484.351 1408.31L484.379 1411.77C484.514 1428.34 471.192 1441.88 454.624 1442.02L276.63 1443.47C260.062 1443.6 246.522 1430.28 246.387 1413.71L246.358 1410.25C246.224 1393.68 259.545 1380.14 276.113 1380L454.107 1378.55Z" fill="#72ABBD"/>
</g>
<defs>
<clipPath id="clip0">
<rect width="768" height="1585" fill="white"/>
</clipPath>
</defs>
</svg>
