<svg width="295" height="1364" viewBox="0 0 295 1364" fill="none" xmlns="http://www.w3.org/2000/svg">
<path d="M244.192 102.624C266.283 102.444 284.337 120.206 284.517 142.297L293.462 1240.58C293.612 1259.04 278.767 1274.13 260.304 1274.28V1274.28C251.601 1274.35 238.018 1274.46 238.018 1274.46C238.018 1274.46 238.018 1274.46 238.018 1274.46L152.055 1275.16L50.375 1275.99C28.2844 1276.17 10.2305 1258.41 10.0506 1236.32L1.15898 144.604C0.979059 122.514 18.7412 104.46 40.8319 104.28L244.192 102.624Z" fill="white"/>
<rect x="272.822" y="1103.29" width="242.431" height="22.4386" rx="11.2193" transform="rotate(89.5334 272.822 1103.29)" fill="white"/>
<rect x="179.714" y="62.309" width="242.431" height="22.4386" rx="11.2193" transform="rotate(89.5334 179.714 62.309)" fill="white"/>
<rect x="133.104" y="30.7556" width="241.515" height="22.0397" rx="11.0198" transform="rotate(89.5334 133.104 30.7556)" fill="white"/>
<rect x="227.365" y="1088.89" width="217.258" height="23.9288" rx="11.9644" transform="rotate(89.5334 227.365 1088.89)" fill="white"/>
<rect x="59.1762" y="1159.87" width="203.548" height="30.2258" rx="15.1129" transform="rotate(89.5334 59.1762 1159.87)" fill="white"/>
<rect x="251.56" y="1224.75" width="86.4824" height="24.2725" rx="12.1362" transform="rotate(89.5334 251.56 1224.75)" fill="#72ABBD"/>
<rect x="259.541" y="13.9061" width="133.941" height="23.9288" rx="11.9644" transform="rotate(89.5334 259.541 13.9061)" fill="#72ABBD"/>
<rect x="284.036" y="83.3157" width="198.353" height="23.7208" rx="11.8604" transform="rotate(89.5334 284.036 83.3157)" fill="white"/>
<rect x="236.405" y="83.7036" width="198.353" height="23.7208" rx="11.8604" transform="rotate(89.5334 236.405 83.7036)" fill="white"/>
<rect x="156.903" y="14.742" width="167.69" height="23.9288" rx="11.9644" transform="rotate(89.5334 156.903 14.742)" fill="#72ABBD"/>
<rect x="82.18" y="1220.86" width="69.6078" height="22.5791" rx="11.2895" transform="rotate(89.5334 82.18 1220.86)" fill="#72ABBD"/>
<rect x="211.942" y="0.581635" width="117.066" height="32.8291" rx="15" transform="rotate(89.5334 211.942 0.581635)" fill="#72ABBD"/>
<path d="M176.461 1248.57C192.479 1248.44 205.569 1261.31 205.7 1277.33V1277.33C205.83 1293.35 192.951 1306.44 176.934 1306.57L100.597 1307.19C84.5799 1307.32 71.4894 1294.44 71.359 1278.43V1278.43C71.2285 1262.41 84.1075 1249.32 100.125 1249.19L176.461 1248.57Z" fill="#72ABBD"/>
</svg>
