<svg width="1291" height="502" viewBox="0 0 1291 502" fill="none" xmlns="http://www.w3.org/2000/svg">
<path d="M97 40C97 17.9086 114.909 0 137 0H1168.03C1190.12 0 1208.03 17.9086 1208.03 40C1208.03 46.7085 1208.03 53.3806 1208.03 59.2247C1208.03 74.6438 1208.03 98.7079 1208.03 98.7079C1208.03 98.7079 1208.03 98.7079 1208.03 98.7079V251V462C1208.03 484.091 1190.12 502 1168.03 502H137C114.909 502 97 484.091 97 462V40Z" fill="white"/>
<rect x="1046" y="34.5822" width="229.868" height="39.7511" rx="19.8756" fill="white"/>
<rect x="58.277" y="184.503" width="229.868" height="39.7511" rx="19.8756" fill="white"/>
<rect x="28" y="266.618" width="229" height="39.0444" rx="19.5222" fill="white"/>
<rect x="1032" y="114.902" width="206" height="42.3911" rx="21.1956" fill="white"/>
<rect x="1098" y="413.871" width="193" height="53.5467" rx="26.7733" fill="white"/>
<rect x="1161" y="74" width="82" height="43" rx="21.5" fill="#72ABBD"/>
<rect x="13" y="42.3911" width="127" height="42.3911" rx="21.1956" fill="#72ABBD"/>
<rect x="79" width="188.074" height="42.0226" rx="21.0113" fill="white"/>
<rect x="79" y="84.3842" width="188.074" height="42.0226" rx="21.0113" fill="white"/>
<rect x="13" y="224.227" width="159" height="42.3911" rx="21.1956" fill="#72ABBD"/>
<rect x="1156" y="374" width="66" height="40" rx="20" fill="#72ABBD"/>
<rect y="126.52" width="111" height="58.1585" rx="15" fill="#72ABBD"/>
<path d="M1183 183.5C1183 168.312 1195.31 156 1210.5 156V156C1225.69 156 1238 168.312 1238 183.5V366.5C1238 381.688 1225.69 394 1210.5 394V394C1195.31 394 1183 381.688 1183 366.5V183.5Z" fill="#72ABBD"/>
</svg>
