<svg width="768" height="502" viewBox="0 0 768 502" fill="none" xmlns="http://www.w3.org/2000/svg">
<path d="M45.6809 40C45.6809 17.9086 63.5895 0 85.6809 0H677.806C699.898 0 717.806 17.9086 717.806 40C717.806 46.7085 717.806 53.3806 717.806 59.2247C717.806 74.6438 717.806 98.7079 717.806 98.7079C717.806 98.7079 717.806 98.7079 717.806 98.7079V251V462C717.806 484.091 699.898 502 677.806 502H85.6809C63.5895 502 45.6809 484.091 45.6809 462V40Z" fill="white"/>
<rect x="619.785" y="34.5823" width="139.06" height="39.7511" rx="19.8756" fill="white"/>
<rect x="22.2552" y="184.503" width="139.06" height="39.7511" rx="19.8756" fill="white"/>
<rect x="3.9389" y="266.618" width="138.535" height="39.0444" rx="19.5222" fill="white"/>
<rect x="611.316" y="114.902" width="124.621" height="42.3911" rx="21.1956" fill="white"/>
<rect x="651.243" y="413.871" width="116.757" height="53.5467" rx="26.7733" fill="white"/>
<rect x="689.356" y="74" width="49.6065" height="43" rx="21.5" fill="#72ABBD"/>
<rect x="-5.1355" y="42.3911" width="76.8296" height="42.3911" rx="21.1956" fill="#72ABBD"/>
<rect x="34.7916" width="113.777" height="42.0226" rx="21.0113" fill="white"/>
<rect x="34.7916" y="84.3842" width="113.777" height="42.0226" rx="21.0113" fill="white"/>
<rect x="-5.1355" y="224.227" width="96.1882" height="42.3911" rx="21.1956" fill="#72ABBD"/>
<rect x="686.331" y="374" width="39.9272" height="40" rx="19.9636" fill="#72ABBD"/>
<rect x="-13" y="126.52" width="67.1503" height="58.1585" rx="15" fill="#72ABBD"/>
<path d="M702.665 172.636C702.665 163.448 710.113 156 719.301 156V156C728.489 156 735.937 163.448 735.937 172.636V377.364C735.937 386.552 728.489 394 719.301 394V394C710.113 394 702.665 386.552 702.665 377.364V172.636Z" fill="#72ABBD"/>
</svg>
