<svg width="947" height="502" viewBox="0 0 947 502" fill="none" xmlns="http://www.w3.org/2000/svg">
<path d="M71.1534 40C71.1534 17.9086 89.0621 0 111.153 0H846.138C868.229 0 886.138 17.9086 886.138 40C886.138 46.7085 886.138 53.3806 886.138 59.2247C886.138 74.6438 886.138 98.7079 886.138 98.7079C886.138 98.7079 886.138 98.7079 886.138 98.7079V251V462C886.138 484.091 868.229 502 846.138 502H111.153C89.062 502 71.1534 484.091 71.1534 462V40Z" fill="white"/>
<rect x="767.283" y="34.5823" width="168.617" height="39.7511" rx="19.8756" fill="white"/>
<rect x="42.7486" y="184.503" width="168.617" height="39.7511" rx="19.8756" fill="white"/>
<rect x="20.5391" y="266.618" width="167.981" height="39.0444" rx="19.5222" fill="white"/>
<rect x="757.013" y="114.902" width="151.109" height="42.3911" rx="21.1956" fill="white"/>
<rect x="805.427" y="413.871" width="141.573" height="53.5467" rx="26.7733" fill="white"/>
<rect x="851.64" y="74" width="60.1503" height="43" rx="21.5" fill="#72ABBD"/>
<rect x="9.53601" y="42.3911" width="93.1596" height="42.3911" rx="21.1956" fill="#72ABBD"/>
<rect x="57.9496" width="137.96" height="42.0226" rx="21.0113" fill="white"/>
<rect x="57.9496" y="84.3842" width="137.96" height="42.0226" rx="21.0113" fill="white"/>
<rect x="9.53601" y="224.227" width="116.633" height="42.3911" rx="21.1956" fill="#72ABBD"/>
<rect x="847.972" y="374" width="48.4136" height="40" rx="20" fill="#72ABBD"/>
<rect y="126.52" width="81.4229" height="58.1585" rx="15" fill="#72ABBD"/>
<path d="M867.778 176.172C867.778 165.031 876.809 156 887.95 156V156C899.091 156 908.122 165.031 908.122 176.172V373.828C908.122 384.969 899.091 394 887.95 394V394C876.809 394 867.778 384.969 867.778 373.828V176.172Z" fill="#72ABBD"/>
</svg>
