<svg width="320" height="1528" viewBox="0 0 320 1528" fill="none" xmlns="http://www.w3.org/2000/svg">
<g clip-path="url(#clip0)">
<rect width="320" height="1528" fill="#72ABBD"/>
<path d="M245 792.861C245 851.956 171.575 899.861 81 899.861C-9.5747 899.861 -57 781.956 -57 722.861C-57 663.767 16.4253 687.861 107 687.861C123 792.861 245 733.767 245 792.861Z" fill="#85B6C6"/>
<path d="M-145.655 865.733C-189.476 826.086 -175.739 739.498 -114.971 672.333C-54.2042 605.168 65.0458 649.104 108.867 688.751C152.688 728.397 85.5593 766.68 24.7922 833.845C-63.8044 775.265 -101.834 905.38 -145.655 865.733Z" fill="#85B6C6"/>
<path d="M-54.655 336.733C-98.476 297.086 -84.7385 210.498 -23.9714 143.333C36.7958 76.1679 156.046 120.104 199.867 159.751C243.688 199.397 176.559 237.68 115.792 304.845C27.1956 246.265 -10.834 376.38 -54.655 336.733Z" fill="#85B6C6"/>
<path d="M258.192 109.624C280.283 109.444 298.337 127.206 298.517 149.297L307.462 1247.58C307.612 1266.04 292.767 1281.13 274.304 1281.28V1281.28C265.601 1281.35 252.018 1281.46 252.018 1281.46C252.018 1281.46 252.018 1281.46 252.018 1281.46L166.055 1282.16L64.375 1282.99C42.2844 1283.17 24.2305 1265.41 24.0506 1243.32L15.159 151.604C14.9791 129.514 32.7412 111.46 54.8319 111.28L258.192 109.624Z" fill="white"/>
<rect x="286.822" y="1110.29" width="242.431" height="22.4386" rx="11.2193" transform="rotate(89.5334 286.822 1110.29)" fill="white"/>
<rect x="193.714" y="69.309" width="242.431" height="22.4386" rx="11.2193" transform="rotate(89.5334 193.714 69.309)" fill="white"/>
<rect x="147.104" y="37.7556" width="241.515" height="22.0397" rx="11.0198" transform="rotate(89.5334 147.104 37.7556)" fill="white"/>
<rect x="241.365" y="1095.89" width="217.258" height="23.9288" rx="11.9644" transform="rotate(89.5334 241.365 1095.89)" fill="white"/>
<rect x="73.1762" y="1166.87" width="203.548" height="30.2258" rx="15.1129" transform="rotate(89.5334 73.1762 1166.87)" fill="white"/>
<rect x="265.56" y="1231.75" width="86.4824" height="24.2725" rx="12.1362" transform="rotate(89.5334 265.56 1231.75)" fill="#72ABBD"/>
<rect x="273.541" y="20.9061" width="133.941" height="23.9288" rx="11.9644" transform="rotate(89.5334 273.541 20.9061)" fill="#72ABBD"/>
<rect x="298.036" y="90.3157" width="198.353" height="23.7208" rx="11.8604" transform="rotate(89.5334 298.036 90.3157)" fill="white"/>
<rect x="250.405" y="90.7036" width="198.353" height="23.7208" rx="11.8604" transform="rotate(89.5334 250.405 90.7036)" fill="white"/>
<rect x="170.903" y="21.742" width="167.69" height="23.9288" rx="11.9644" transform="rotate(89.5334 170.903 21.742)" fill="#72ABBD"/>
<rect x="96.18" y="1227.86" width="69.6078" height="22.5791" rx="11.2895" transform="rotate(89.5334 96.18 1227.86)" fill="#72ABBD"/>
<rect x="225.942" y="7.58163" width="117.066" height="32.8291" rx="15" transform="rotate(89.5334 225.942 7.58163)" fill="#72ABBD"/>
<path d="M190.461 1255.57C206.479 1255.44 219.569 1268.31 219.7 1284.33V1284.33C219.83 1300.35 206.951 1313.44 190.934 1313.57L114.597 1314.19C98.5799 1314.32 85.4894 1301.44 85.359 1285.43V1285.43C85.2285 1269.41 98.1075 1256.32 114.125 1256.19L190.461 1255.57Z" fill="#72ABBD"/>
</g>
<defs>
<clipPath id="clip0">
<rect width="320" height="1528" fill="white"/>
</clipPath>
</defs>
</svg>
