<svg width="1513" height="917" viewBox="0 0 1513 917" fill="none" xmlns="http://www.w3.org/2000/svg">
<g clip-path="url(#clip0)">
<rect width="1513" height="917" fill="#72ABBD"/>
<path d="M352 878.861C352 937.956 278.575 985.861 188 985.861C97.4253 985.861 50 867.956 50 808.861C50 749.767 123.425 773.861 214 773.861C230 878.861 352 819.767 352 878.861Z" fill="#85B6C6"/>
<path d="M948 894.861C948 953.956 874.575 1001.86 784 1001.86C693.425 1001.86 646 883.956 646 824.861C646 765.767 719.425 789.861 810 789.861C826 894.861 948 835.767 948 894.861Z" fill="#85B6C6"/>
<path d="M1513 42.8614C1513 101.956 1439.57 149.861 1349 149.861C1258.43 149.861 1211 31.9557 1211 -27.1387C1211 -86.2332 1284.43 -62.1388 1375 -62.1388C1391 42.8614 1513 -16.233 1513 42.8614Z" fill="#85B6C6"/>
<path d="M466 16.8614C466 75.9559 392.575 123.861 302 123.861C211.425 123.861 164 5.95573 164 -53.1387C164 -112.233 237.425 -88.1388 328 -88.1388C344 16.8614 466 -42.233 466 16.8614Z" fill="#85B6C6"/>
<path d="M1026 406.861C1026 465.956 952.575 513.861 862 513.861C771.425 513.861 724 395.956 724 336.861C724 277.767 797.425 301.861 888 301.861C904 406.861 1026 347.767 1026 406.861Z" fill="#85B6C6"/>
<path d="M1628 878.861C1628 937.956 1554.57 985.861 1464 985.861C1373.43 985.861 1326 867.956 1326 808.861C1326 749.767 1399.43 773.861 1490 773.861C1506 878.861 1628 819.767 1628 878.861Z" fill="#85B6C6"/>
<path d="M1686 478.861C1686 537.956 1612.57 585.861 1522 585.861C1431.43 585.861 1384 467.956 1384 408.861C1384 349.767 1457.43 373.861 1548 373.861C1564 478.861 1686 419.767 1686 478.861Z" fill="#85B6C6"/>
<path d="M363 708.861C363 767.956 289.575 815.861 199 815.861C108.425 815.861 61 697.956 61 638.861C61 579.767 134.425 603.861 225 603.861C241 708.861 363 649.767 363 708.861Z" fill="#85B6C6"/>
<path d="M1124 42.8614C1124 101.956 1050.57 149.861 960 149.861C869.425 149.861 822 31.9557 822 -27.1387C822 -86.2332 895.425 -62.1388 986 -62.1388C1002 42.8614 1124 -16.233 1124 42.8614Z" fill="#85B6C6"/>
</g>
<defs>
<clipPath id="clip0">
<rect width="1513" height="917" fill="white"/>
</clipPath>
</defs>
</svg>
