<svg width="320" height="1528" viewBox="0 0 320 1528" fill="none" xmlns="http://www.w3.org/2000/svg">
<g clip-path="url(#clip0)">
<rect width="320" height="1528" fill="#72ABBD"/>
<path d="M245 792.861C245 851.956 171.575 899.861 81 899.861C-9.5747 899.861 -57 781.956 -57 722.861C-57 663.767 16.4253 687.861 107 687.861C123 792.861 245 733.767 245 792.861Z" fill="#85B6C6"/>
<path d="M-145.655 865.733C-189.476 826.086 -175.739 739.498 -114.971 672.333C-54.2042 605.168 65.0458 649.104 108.867 688.751C152.688 728.397 85.5593 766.68 24.7922 833.845C-63.8044 775.265 -101.834 905.38 -145.655 865.733Z" fill="#85B6C6"/>
<path d="M-54.655 336.733C-98.476 297.086 -84.7385 210.498 -23.9714 143.333C36.7958 76.1679 156.046 120.104 199.867 159.751C243.688 199.397 176.559 237.68 115.792 304.845C27.1956 246.265 -10.834 376.38 -54.655 336.733Z" fill="#85B6C6"/>
</g>
<defs>
<clipPath id="clip0">
<rect width="320" height="1528" fill="white"/>
</clipPath>
</defs>
</svg>
